<svg width="151" height="117" viewBox="0 0 151 117" fill="none" xmlns="http://www.w3.org/2000/svg">
<g clip-path="url(#clip0_251_95)">
<path d="M37.8848 -15.9595C31.2544 -15.9595 24.8955 -13.3069 20.2071 -8.5852C15.5187 -3.86353 12.8848 2.54042 12.8848 9.21787V59.5726C12.8848 66.25 15.5187 72.6539 20.2071 77.3756C24.8955 82.0973 31.2544 84.7499 37.8848 84.7499H67.4098L97.1723 102.733C98.0686 103.275 99.0855 103.581 100.13 103.625C101.174 103.668 102.213 103.447 103.151 102.982C104.088 102.517 104.895 101.822 105.497 100.961C106.099 100.101 106.478 99.1019 106.597 98.0561L106.635 97.3386V84.7499H112.885C119.299 84.7499 125.467 82.2672 130.115 77.8153C134.762 73.3634 137.533 67.2829 137.854 60.8314L137.885 59.5726V9.21787C137.885 2.54042 135.251 -3.86353 130.562 -8.5852C125.874 -13.3069 119.515 -15.9595 112.885 -15.9595H37.8848ZM62.8848 40.6895H100.385C102.042 40.6895 103.632 41.3527 104.804 42.5331C105.976 43.7135 106.635 45.3145 106.635 46.9839C106.635 48.6532 105.976 50.2542 104.804 51.4346C103.632 52.6151 102.042 53.2782 100.385 53.2782H62.8848C61.2272 53.2782 59.6375 52.6151 58.4654 51.4346C57.2933 50.2542 56.6348 48.6532 56.6348 46.9839C56.6348 45.3145 57.2933 43.7135 58.4654 42.5331C59.6375 41.3527 61.2272 40.6895 62.8848 40.6895ZM50.3848 15.5122H100.385C102.042 15.5122 103.632 16.1754 104.804 17.3558C105.976 18.5362 106.635 20.1372 106.635 21.8065C106.635 23.4759 105.976 25.0769 104.804 26.2573C103.632 27.4377 102.042 28.1009 100.385 28.1009H50.3848C48.7272 28.1009 47.1375 27.4377 45.9653 26.2573C44.7933 25.0769 44.1348 23.4759 44.1348 21.8065C44.1348 20.1372 44.7933 18.5362 45.9653 17.3558C47.1375 16.1754 48.7272 15.5122 50.3848 15.5122Z" fill="white" fill-opacity="0.17"/>
</g>
<defs>
<clipPath id="clip0_251_95">
<rect width="150" height="116" fill="white" transform="matrix(-1 0 0 1 150.328 0.57666)"/>
</clipPath>
</defs>
</svg>
