<svg width="162" height="128" viewBox="0 0 162 128" fill="none" xmlns="http://www.w3.org/2000/svg">
<g clip-path="url(#clip0_251_70)">
<path fill-rule="evenodd" clip-rule="evenodd" d="M95.9217 -15.6268C95.9217 -16.0688 95.745 -16.4927 95.4305 -16.8053C95.116 -17.1179 94.6894 -17.2935 94.2446 -17.2935H47.2863C42.3936 -17.2935 37.7013 -15.3619 34.2416 -11.9237C30.782 -8.48558 28.8384 -3.82243 28.8384 1.03988V94.3732C28.8384 99.2355 30.782 103.899 34.2416 107.337C37.7013 110.775 42.3936 112.707 47.2863 112.707H114.37C119.262 112.707 123.955 110.775 127.414 107.337C130.874 103.899 132.818 99.2355 132.818 94.3732V28.6865C132.818 28.2445 132.641 27.8206 132.326 27.508C132.012 27.1955 131.585 27.0199 131.14 27.0199H100.953C99.6186 27.0199 98.3389 26.4931 97.3953 25.5554C96.4518 24.6177 95.9217 23.346 95.9217 22.0199V-15.6268ZM100.953 49.3732C102.287 49.3732 103.567 49.9 104.511 50.8377C105.454 51.7754 105.984 53.0471 105.984 54.3732C105.984 55.6993 105.454 56.9711 104.511 57.9087C103.567 58.8464 102.287 59.3732 100.953 59.3732H60.703C59.3686 59.3732 58.0889 58.8464 57.1453 57.9087C56.2018 56.9711 55.6717 55.6993 55.6717 54.3732C55.6717 53.0471 56.2018 51.7754 57.1453 50.8377C58.0889 49.9 59.3686 49.3732 60.703 49.3732H100.953ZM100.953 76.0399C102.287 76.0399 103.567 76.5667 104.511 77.5043C105.454 78.442 105.984 79.7138 105.984 81.0399C105.984 82.366 105.454 83.6377 104.511 84.5754C103.567 85.5131 102.287 86.0399 100.953 86.0399H60.703C59.3686 86.0399 58.0889 85.5131 57.1453 84.5754C56.2018 83.6377 55.6717 82.366 55.6717 81.0399C55.6717 79.7138 56.2018 78.442 57.1453 77.5043C58.0889 76.5667 59.3686 76.0399 60.703 76.0399H100.953Z" fill="white" fill-opacity="0.19"/>
<path d="M105.984 -13.4668C105.984 -14.6934 107.279 -15.4734 108.238 -14.7068C109.052 -14.0534 109.775 -13.2934 110.405 -12.4268L130.617 15.5532C131.074 16.1932 130.577 17.0199 129.786 17.0199H107.661C107.217 17.0199 106.79 16.8443 106.476 16.5318C106.161 16.2192 105.984 15.7953 105.984 15.3532V-13.4668Z" fill="white" fill-opacity="0.19"/>
</g>
<defs>
<clipPath id="clip0_251_70">
<rect width="161" height="127" fill="white" transform="translate(0.328125 0.706543)"/>
</clipPath>
</defs>
</svg>
