<svg width="171" height="140" viewBox="0 0 171 140" fill="none" xmlns="http://www.w3.org/2000/svg">
<g clip-path="url(#clip0_251_68)">
<path d="M59.9582 0.888998V3.67566C53.868 1.25566 47.3375 0.00899839 40.807 0.00899839C30.3876 0.00899839 19.9682 3.16233 11.0897 9.469C7.34754 12.109 6.90728 17.4623 10.1358 20.689L28.9935 39.5357H37.1382V47.6757C43.4486 53.9823 51.6667 57.2823 59.9582 57.649V74.2223H45.283C41.2473 74.2223 37.9454 77.5223 37.9454 81.5557V96.2223C37.9454 104.289 44.5492 110.889 52.6206 110.889H125.997C138.177 110.889 148.009 101.062 148.009 88.889V0.888998C148.009 -3.14434 144.708 -6.44434 140.672 -6.44434H67.2958C63.2601 -6.44434 59.9582 -3.14434 59.9582 0.888998ZM51.8134 40.5623V24.7957H35.0837L27.4526 17.169C31.7146 15.5305 36.2406 14.6855 40.807 14.6757C50.6394 14.6757 59.8114 18.489 66.7822 25.3823L77.1282 35.7223L75.6607 37.189C73.8171 39.0492 71.6227 40.5256 69.2045 41.5326C66.7863 42.5396 64.1922 43.0573 61.5725 43.0557C58.1238 43.0557 54.7485 42.1757 51.8134 40.5623ZM133.334 88.889C133.334 92.9223 130.032 96.2223 125.997 96.2223C121.961 96.2223 118.659 92.9223 118.659 88.889V81.5557C118.659 77.5223 115.357 74.2223 111.321 74.2223H74.6334V55.229C78.8158 53.5423 82.7048 51.049 86.0801 47.6757L87.5476 46.209L108.313 66.889H118.659V56.549L74.6334 12.769V8.22233H133.334V88.889Z" fill="white" fill-opacity="0.17"/>
</g>
<defs>
<clipPath id="clip0_251_68">
<rect width="170" height="139" fill="white" transform="translate(0.328125 0.706543)"/>
</clipPath>
</defs>
</svg>
