<svg width="34" height="34" viewBox="0 0 34 34" fill="none" xmlns="http://www.w3.org/2000/svg">
<g clip-path="url(#clip0_221_373)">
<path d="M3.67295 1.78055C1.89028 1.78055 0.460938 3.20989 0.460938 4.99256V21.0526C0.460938 21.9045 0.799345 22.7215 1.40171 23.3239C2.00408 23.9262 2.82107 24.2646 3.67295 24.2646H16.521V32.2947L21.339 27.4766L26.157 32.2947V24.2646H29.369C30.2209 24.2646 31.0379 23.9262 31.6403 23.3239C32.2426 22.7215 32.5811 21.9045 32.5811 21.0526V4.99256C32.5811 4.14068 32.2426 3.32369 31.6403 2.72132C31.0379 2.11896 30.2209 1.78055 29.369 1.78055H3.67295ZM16.521 4.99256L21.339 8.20457L26.157 4.99256V10.6136L30.975 13.0226L26.157 15.4316V21.0526L21.339 17.8406L16.521 21.0526V15.4316L11.703 13.0226L16.521 10.6136V4.99256ZM3.67295 4.99256H11.703V8.20457H3.67295V4.99256ZM3.67295 11.4166H8.49097V14.6286H3.67295V11.4166ZM3.67295 17.8406H11.703V21.0526H3.67295V17.8406Z" fill="url(#paint0_linear_221_373)"/>
</g>
<defs>
<linearGradient id="paint0_linear_221_373" x1="16.521" y1="1.78055" x2="16.521" y2="32.2947" gradientUnits="userSpaceOnUse">
<stop stop-color="#67BBFA"/>
<stop offset="1" stop-color="#4DB9AB"/>
</linearGradient>
<clipPath id="clip0_221_373">
<rect width="33" height="33" fill="white" transform="translate(0.0209961 0.537598)"/>
</clipPath>
</defs>
</svg>
