<svg width="66" height="66" viewBox="0 0 66 66" fill="none" xmlns="http://www.w3.org/2000/svg">
<path fill-rule="evenodd" clip-rule="evenodd" d="M7.14014 32.5803C7.14014 25.6348 9.89922 18.9738 14.8104 14.0626C19.7216 9.15142 26.3826 6.39233 33.3281 6.39233C40.2736 6.39233 46.9346 9.15142 51.8458 14.0626C56.757 18.9738 59.5161 25.6348 59.5161 32.5803C59.5161 39.5258 56.757 46.1868 51.8458 51.098C46.9346 56.0092 40.2736 58.7683 33.3281 58.7683C26.3826 58.7683 19.7216 56.0092 14.8104 51.098C9.89922 46.1868 7.14014 39.5258 7.14014 32.5803ZM35.1987 17.6158V31.8059L45.8759 42.4794L43.2272 45.1281L31.4576 33.3547V17.6158H35.1987ZM35.1987 13.8746V10.1335H31.4576V13.8746H35.1987ZM35.1987 55.0272V51.286H31.4576V55.0272H35.1987ZM52.0338 30.7098H55.775V34.4509H52.0338V30.7098ZM14.6224 30.7098H10.8813V34.4509H14.6224V30.7098Z" fill="url(#paint0_linear_320_718)"/>
<defs>
<linearGradient id="paint0_linear_320_718" x1="6.37741" y1="6.39233" x2="74.907" y2="11.1473" gradientUnits="userSpaceOnUse">
<stop stop-color="#67BBFB"/>
<stop offset="1" stop-color="#4DB9AB"/>
</linearGradient>
</defs>
</svg>
