<svg width="34" height="34" viewBox="0 0 34 34" fill="none" xmlns="http://www.w3.org/2000/svg">
<path d="M17.3232 2.2774C25.4338 2.2774 32.0083 8.85191 32.0083 16.9625C32.0083 25.073 25.4338 31.6475 17.3232 31.6475C9.21268 31.6475 2.63818 25.073 2.63818 16.9625C2.63818 8.85191 9.21268 2.2774 17.3232 2.2774ZM15.9575 10.4731C15.6859 10.4739 15.4257 10.5822 15.2336 10.7742C15.0415 10.9663 14.9333 11.2265 14.9325 11.4982V19.6939C14.9325 20.2607 15.3907 20.7189 15.9575 20.7189H24.1533C24.291 20.7241 24.4284 20.7015 24.5573 20.6524C24.6861 20.6032 24.8037 20.5286 24.903 20.433C25.0023 20.3374 25.0813 20.2227 25.1353 20.0958C25.1893 19.9689 25.2171 19.8325 25.2171 19.6946C25.2171 19.5567 25.1893 19.4203 25.1353 19.2934C25.0813 19.1665 25.0023 19.0519 24.903 18.9562C24.8037 18.8606 24.6861 18.786 24.5573 18.7369C24.4284 18.6877 24.291 18.6651 24.1533 18.6703H16.9811V11.4982C16.9803 11.2268 16.8723 10.9667 16.6805 10.7747C16.4888 10.5827 16.2289 10.4743 15.9575 10.4731Z" fill="url(#paint0_linear_221_371)"/>
<defs>
<linearGradient id="paint0_linear_221_371" x1="17.3232" y1="2.2774" x2="17.3232" y2="31.6475" gradientUnits="userSpaceOnUse">
<stop stop-color="#67BBFA"/>
<stop offset="1" stop-color="#4DB9AB"/>
</linearGradient>
</defs>
</svg>
