<svg width="34" height="33" viewBox="0 0 34 33" fill="none" xmlns="http://www.w3.org/2000/svg">
<path fill-rule="evenodd" clip-rule="evenodd" d="M3.36523 16.5V11C3.36523 7.1115 3.36523 5.16588 4.57386 3.95863C5.78111 2.75 7.72673 2.75 11.6152 2.75H22.6152C26.5037 2.75 28.4494 2.75 29.6566 3.95863C30.8652 5.16588 30.8652 7.1115 30.8652 11V16.5C30.8652 20.3885 30.8652 22.3341 29.6566 23.5414C28.7684 24.431 27.4814 24.6661 25.3144 24.728C25.3103 23.6861 24.9365 22.6794 24.2597 21.8873C24.2191 21.8414 24.1949 21.7834 24.191 21.7223C24.1077 20.6763 23.6545 19.6942 22.9127 18.9521C22.1709 18.21 21.1889 17.7565 20.143 17.6729C20.0819 17.669 20.0238 17.6448 19.978 17.6041C19.1794 16.9236 18.1645 16.5498 17.1152 16.5498C16.066 16.5498 15.0511 16.9236 14.2525 17.6041C14.2067 17.6448 14.1486 17.669 14.0875 17.6729C13.0413 17.7562 12.059 18.2096 11.3169 18.9517C10.5748 19.6938 10.1214 20.6761 10.0381 21.7223C10.0342 21.7834 10.01 21.8414 9.96936 21.8873C9.29306 22.6796 8.91983 23.6863 8.91611 24.728C6.74911 24.6661 5.46211 24.431 4.57386 23.5414C3.36523 22.3341 3.36523 20.3885 3.36523 16.5ZM11.959 8.25C11.959 7.9765 12.0676 7.71419 12.261 7.5208C12.4544 7.3274 12.7167 7.21875 12.9902 7.21875H21.2402C21.5137 7.21875 21.776 7.3274 21.9694 7.5208C22.1628 7.71419 22.2715 7.9765 22.2715 8.25C22.2715 8.52351 22.1628 8.78581 21.9694 8.9792C21.776 9.1726 21.5137 9.28125 21.2402 9.28125H12.9902C12.7167 9.28125 12.4544 9.1726 12.261 8.9792C12.0676 8.78581 11.959 8.52351 11.959 8.25ZM10.2402 12.0313C9.96673 12.0313 9.70443 12.1399 9.51103 12.3333C9.31763 12.5267 9.20898 12.789 9.20898 13.0625C9.20898 13.336 9.31763 13.5983 9.51103 13.7917C9.70443 13.9851 9.96673 14.0938 10.2402 14.0938H23.9902C24.2637 14.0938 24.526 13.9851 24.7194 13.7917C24.9128 13.5983 25.0215 13.336 25.0215 13.0625C25.0215 12.789 24.9128 12.5267 24.7194 12.3333C24.526 12.1399 24.2637 12.0313 23.9902 12.0313H10.2402Z" fill="url(#paint0_linear_221_375)"/>
<path fill-rule="evenodd" clip-rule="evenodd" d="M18.6419 19.1744C18.2163 18.8112 17.6752 18.6117 17.1157 18.6117C16.5562 18.6117 16.015 18.8112 15.5894 19.1744C15.2134 19.4961 14.7449 19.6901 14.2515 19.7285C13.6939 19.7729 13.1704 20.0146 12.775 20.4103C12.3796 20.806 12.1382 21.3296 12.0942 21.8873C12.0557 22.3795 11.8604 22.847 11.54 23.2251C11.1776 23.6505 10.9785 24.1911 10.9785 24.75C10.9785 25.3089 11.1776 25.8495 11.54 26.2749C11.8618 26.6516 12.0557 27.1205 12.0942 27.6128C12.1382 28.1706 12.3798 28.6945 12.7755 29.0902C13.1712 29.4858 13.6951 29.7274 14.2529 29.7715C14.7452 29.81 15.214 30.0039 15.5908 30.3243C16.0162 30.6867 16.5568 30.8858 17.1157 30.8858C17.6745 30.8858 18.2151 30.6867 18.6405 30.3243C19.0166 30.0026 19.485 29.8086 19.9784 29.7701C20.536 29.7261 21.0597 29.4847 21.4554 29.0893C21.851 28.6939 22.0928 28.1704 22.1372 27.6128C22.1752 27.1196 22.3687 26.6511 22.6899 26.2749C23.0527 25.8494 23.252 25.3085 23.252 24.7493C23.252 24.1901 23.0527 23.6493 22.6899 23.2238C22.3682 22.8477 22.1742 22.3793 22.1358 21.8859C22.0914 21.3285 21.8499 20.8052 21.4545 20.4098C21.0591 20.0144 20.5358 19.7729 19.9784 19.7285C19.485 19.6901 19.018 19.4961 18.6419 19.1744ZM19.8808 24.1285C19.9812 24.0364 20.0625 23.9254 20.1197 23.8018C20.177 23.6781 20.2092 23.5444 20.2145 23.4082C20.2198 23.272 20.198 23.1362 20.1505 23.0085C20.103 22.8808 20.0306 22.7638 19.9376 22.6642C19.8445 22.5646 19.7327 22.4845 19.6085 22.4284C19.4843 22.3723 19.3503 22.3414 19.2141 22.3374C19.0779 22.3335 18.9422 22.3565 18.815 22.4053C18.6878 22.454 18.5715 22.5275 18.4728 22.6215L16.2315 24.7143L15.7558 24.2715C15.5554 24.0879 15.2907 23.9908 15.0191 24.0013C14.7475 24.0118 14.491 24.1292 14.3055 24.3277C14.1199 24.5263 14.0203 24.7902 14.0282 25.0618C14.0361 25.3335 14.151 25.5911 14.3478 25.7785L15.5262 26.8785C15.7172 27.0569 15.9688 27.1562 16.2302 27.1562C16.4915 27.1562 16.7432 27.0569 16.9342 26.8785L19.8808 24.1285Z" fill="url(#paint1_linear_221_375)"/>
<defs>
<linearGradient id="paint0_linear_221_375" x1="17.1152" y1="2.75" x2="17.1152" y2="24.728" gradientUnits="userSpaceOnUse">
<stop stop-color="#67BBFA"/>
<stop offset="1" stop-color="#4DB9AB"/>
</linearGradient>
<linearGradient id="paint1_linear_221_375" x1="17.1153" y1="18.6117" x2="17.1153" y2="30.8858" gradientUnits="userSpaceOnUse">
<stop stop-color="#67BBFA"/>
<stop offset="1" stop-color="#4DB9AB"/>
</linearGradient>
</defs>
</svg>
