<svg width="24" height="25" viewBox="0 0 24 25" fill="none" xmlns="http://www.w3.org/2000/svg">
<path d="M3.99707 20.0244C3.44707 20.0244 2.9764 19.8287 2.58507 19.4374C2.19374 19.0461 1.99774 18.5751 1.99707 18.0244V6.02441C1.99707 5.47441 2.19307 5.00375 2.58507 4.61241C2.97707 4.22108 3.44774 4.02508 3.99707 4.02441H19.9971C20.5471 4.02441 21.0181 4.22041 21.4101 4.61241C21.8021 5.00441 21.9977 5.47508 21.9971 6.02441V18.0244C21.9971 18.5744 21.8014 19.0454 21.4101 19.4374C21.0187 19.8294 20.5477 20.0251 19.9971 20.0244H3.99707ZM11.9971 12.8494C12.0804 12.8494 12.1681 12.8367 12.2601 12.8114C12.3521 12.7861 12.4394 12.7487 12.5221 12.6994L19.5971 8.27441C19.7304 8.19108 19.8304 8.08708 19.8971 7.96241C19.9637 7.83775 19.9971 7.70008 19.9971 7.54941C19.9971 7.21608 19.8554 6.96608 19.5721 6.79941C19.2887 6.63275 18.9971 6.64108 18.6971 6.82441L11.9971 11.0244L5.29707 6.82441C4.99707 6.64108 4.7054 6.63708 4.42207 6.81241C4.13874 6.98775 3.99707 7.23341 3.99707 7.54941C3.99707 7.71608 4.0304 7.86208 4.09707 7.98741C4.16374 8.11275 4.26374 8.20841 4.39707 8.27441L11.4721 12.6994C11.5554 12.7494 11.6431 12.7871 11.7351 12.8124C11.8271 12.8377 11.9144 12.8501 11.9971 12.8494Z" fill="#45A3EB"/>
</svg>
