<svg width="25" height="25" viewBox="0 0 25 25" fill="none" xmlns="http://www.w3.org/2000/svg">
<path d="M9.46094 5.33436C9.19572 5.33436 8.94137 5.43972 8.75383 5.62725C8.56629 5.81479 8.46094 6.06914 8.46094 6.33436C8.46094 6.59958 8.56629 6.85393 8.75383 7.04147C8.94137 7.229 9.19572 7.33436 9.46094 7.33436C9.72615 7.33436 9.98051 7.229 10.168 7.04147C10.3556 6.85393 10.4609 6.59958 10.4609 6.33436C10.4609 6.06914 10.3556 5.81479 10.168 5.62725C9.98051 5.43972 9.72615 5.33436 9.46094 5.33436ZM6.63094 5.33436C6.83754 4.74883 7.22068 4.24179 7.72754 3.88315C8.2344 3.5245 8.84002 3.33191 9.46094 3.33191C10.0819 3.33191 10.6875 3.5245 11.1943 3.88315C11.7012 4.24179 12.0843 4.74883 12.2909 5.33436H19.4609C19.7262 5.33436 19.9805 5.43972 20.168 5.62725C20.3556 5.81479 20.4609 6.06914 20.4609 6.33436C20.4609 6.59958 20.3556 6.85393 20.168 7.04147C19.9805 7.229 19.7262 7.33436 19.4609 7.33436H12.2909C12.0843 7.91989 11.7012 8.42693 11.1943 8.78557C10.6875 9.14421 10.0819 9.33681 9.46094 9.33681C8.84002 9.33681 8.2344 9.14421 7.72754 8.78557C7.22068 8.42693 6.83754 7.91989 6.63094 7.33436H5.46094C5.19572 7.33436 4.94137 7.229 4.75383 7.04147C4.56629 6.85393 4.46094 6.59958 4.46094 6.33436C4.46094 6.06914 4.56629 5.81479 4.75383 5.62725C4.94137 5.43972 5.19572 5.33436 5.46094 5.33436H6.63094ZM15.4609 11.3344C15.1957 11.3344 14.9414 11.4397 14.7538 11.6273C14.5663 11.8148 14.4609 12.0691 14.4609 12.3344C14.4609 12.5996 14.5663 12.8539 14.7538 13.0415C14.9414 13.229 15.1957 13.3344 15.4609 13.3344C15.7262 13.3344 15.9805 13.229 16.168 13.0415C16.3556 12.8539 16.4609 12.5996 16.4609 12.3344C16.4609 12.0691 16.3556 11.8148 16.168 11.6273C15.9805 11.4397 15.7262 11.3344 15.4609 11.3344ZM12.6309 11.3344C12.8375 10.7488 13.2207 10.2418 13.7275 9.88315C14.2344 9.5245 14.84 9.33191 15.4609 9.33191C16.0819 9.33191 16.6875 9.5245 17.1943 9.88315C17.7012 10.2418 18.0843 10.7488 18.2909 11.3344H19.4609C19.7262 11.3344 19.9805 11.4397 20.168 11.6273C20.3556 11.8148 20.4609 12.0691 20.4609 12.3344C20.4609 12.5996 20.3556 12.8539 20.168 13.0415C19.9805 13.229 19.7262 13.3344 19.4609 13.3344H18.2909C18.0843 13.9199 17.7012 14.4269 17.1943 14.7856C16.6875 15.1442 16.0819 15.3368 15.4609 15.3368C14.84 15.3368 14.2344 15.1442 13.7275 14.7856C13.2207 14.4269 12.8375 13.9199 12.6309 13.3344H5.46094C5.19572 13.3344 4.94137 13.229 4.75383 13.0415C4.56629 12.8539 4.46094 12.5996 4.46094 12.3344C4.46094 12.0691 4.56629 11.8148 4.75383 11.6273C4.94137 11.4397 5.19572 11.3344 5.46094 11.3344H12.6309ZM9.46094 17.3344C9.19572 17.3344 8.94137 17.4397 8.75383 17.6273C8.56629 17.8148 8.46094 18.0691 8.46094 18.3344C8.46094 18.5996 8.56629 18.8539 8.75383 19.0415C8.94137 19.229 9.19572 19.3344 9.46094 19.3344C9.72615 19.3344 9.98051 19.229 10.168 19.0415C10.3556 18.8539 10.4609 18.5996 10.4609 18.3344C10.4609 18.0691 10.3556 17.8148 10.168 17.6273C9.98051 17.4397 9.72615 17.3344 9.46094 17.3344ZM6.63094 17.3344C6.83754 16.7488 7.22068 16.2418 7.72754 15.8831C8.2344 15.5245 8.84002 15.3319 9.46094 15.3319C10.0819 15.3319 10.6875 15.5245 11.1943 15.8831C11.7012 16.2418 12.0843 16.7488 12.2909 17.3344H19.4609C19.7262 17.3344 19.9805 17.4397 20.168 17.6273C20.3556 17.8148 20.4609 18.0691 20.4609 18.3344C20.4609 18.5996 20.3556 18.8539 20.168 19.0415C19.9805 19.229 19.7262 19.3344 19.4609 19.3344H12.2909C12.0843 19.9199 11.7012 20.4269 11.1943 20.7856C10.6875 21.1442 10.0819 21.3368 9.46094 21.3368C8.84002 21.3368 8.2344 21.1442 7.72754 20.7856C7.22068 20.4269 6.83754 19.9199 6.63094 19.3344H5.46094C5.19572 19.3344 4.94137 19.229 4.75383 19.0415C4.56629 18.8539 4.46094 18.5996 4.46094 18.3344C4.46094 18.0691 4.56629 17.8148 4.75383 17.6273C4.94137 17.4397 5.19572 17.3344 5.46094 17.3344H6.63094Z" fill="#45A3EB"/>
</svg>
