<svg width="25" height="25" viewBox="0 0 25 25" fill="none" xmlns="http://www.w3.org/2000/svg">
<path d="M13.4338 2.46826C14.5588 2.47126 15.1298 2.47726 15.6228 2.49126L15.8168 2.49826C16.0408 2.50626 16.2618 2.51626 16.5288 2.52826C17.5928 2.57826 18.3188 2.74626 18.9558 2.99326C19.6158 3.24726 20.1718 3.59126 20.7278 4.14626C21.2365 4.64599 21.63 5.25073 21.8808 5.91826C22.1278 6.55526 22.2958 7.28126 22.3458 8.34626C22.3578 8.61226 22.3678 8.83326 22.3758 9.05826L22.3818 9.25226C22.3968 9.74426 22.4028 10.3153 22.4048 11.4403L22.4058 12.1863V13.4963C22.4083 14.2257 22.4006 14.9551 22.3828 15.6843L22.3768 15.8783C22.3688 16.1033 22.3588 16.3243 22.3468 16.5903C22.2968 17.6553 22.1268 18.3803 21.8808 19.0183C21.63 19.6858 21.2365 20.2905 20.7278 20.7903C20.2281 21.299 19.6234 21.6924 18.9558 21.9433C18.3188 22.1903 17.5928 22.3583 16.5288 22.4083L15.8168 22.4383L15.6228 22.4443C15.1298 22.4583 14.5588 22.4653 13.4338 22.4673L12.6878 22.4683H11.3788C10.6491 22.4708 9.91937 22.4632 9.18984 22.4453L8.99584 22.4393C8.75845 22.4303 8.52112 22.4199 8.28384 22.4083C7.21984 22.3583 6.49384 22.1903 5.85584 21.9433C5.18867 21.6923 4.58429 21.2988 4.08484 20.7903C3.57579 20.2906 3.18195 19.6859 2.93084 19.0183C2.68384 18.3813 2.51584 17.6553 2.46584 16.5903L2.43584 15.8783L2.43084 15.6843C2.41241 14.9551 2.40407 14.2257 2.40584 13.4963V11.4403C2.40307 10.7109 2.41041 9.98146 2.42784 9.25226L2.43484 9.05826C2.44284 8.83326 2.45284 8.61226 2.46484 8.34626C2.51484 7.28126 2.68284 6.55626 2.92984 5.91826C3.18154 5.25046 3.57607 4.6457 4.08584 4.14626C4.585 3.63781 5.18903 3.24434 5.85584 2.99326C6.49384 2.74626 7.21884 2.57826 8.28384 2.52826C8.54984 2.51626 8.77184 2.50626 8.99584 2.49826L9.18984 2.49226C9.91903 2.47449 10.6484 2.46683 11.3778 2.46926L13.4338 2.46826ZM12.4058 7.46826C11.0798 7.46826 9.80799 7.99505 8.87031 8.93273C7.93263 9.87041 7.40584 11.1422 7.40584 12.4683C7.40584 13.7943 7.93263 15.0661 8.87031 16.0038C9.80799 16.9415 11.0798 17.4683 12.4058 17.4683C13.7319 17.4683 15.0037 16.9415 15.9414 16.0038C16.8791 15.0661 17.4058 13.7943 17.4058 12.4683C17.4058 11.1422 16.8791 9.87041 15.9414 8.93273C15.0037 7.99505 13.7319 7.46826 12.4058 7.46826ZM12.4058 9.46826C12.7998 9.4682 13.1899 9.54573 13.5539 9.69643C13.9179 9.84714 14.2487 10.0681 14.5273 10.3466C14.8059 10.6251 15.027 10.9558 15.1778 11.3197C15.3286 11.6837 15.4063 12.0738 15.4063 12.4678C15.4064 12.8617 15.3289 13.2518 15.1782 13.6159C15.0275 13.9799 14.8065 14.3106 14.528 14.5892C14.2495 14.8679 13.9188 15.0889 13.5549 15.2397C13.1909 15.3905 12.8008 15.4682 12.4068 15.4683C11.6112 15.4683 10.8481 15.1522 10.2855 14.5896C9.72291 14.027 9.40684 13.2639 9.40684 12.4683C9.40684 11.6726 9.72291 10.9095 10.2855 10.3469C10.8481 9.78433 11.6112 9.46826 12.4068 9.46826M17.6568 5.96826C17.3253 5.96826 17.0074 6.09996 16.773 6.33438C16.5385 6.5688 16.4068 6.88674 16.4068 7.21826C16.4068 7.54978 16.5385 7.86772 16.773 8.10215C17.0074 8.33657 17.3253 8.46826 17.6568 8.46826C17.9884 8.46826 18.3063 8.33657 18.5407 8.10215C18.7751 7.86772 18.9068 7.54978 18.9068 7.21826C18.9068 6.88674 18.7751 6.5688 18.5407 6.33438C18.3063 6.09996 17.9884 5.96826 17.6568 5.96826Z" fill="#45A3EB"/>
</svg>
