<svg width="34" height="35" viewBox="0 0 34 35" fill="none" xmlns="http://www.w3.org/2000/svg">
<path fill-rule="evenodd" clip-rule="evenodd" d="M16.2128 31.8459C16.2128 31.8459 6.22754 23.1815 6.22754 14.656C6.22754 11.6502 7.38646 8.76756 9.44936 6.64215C11.5123 4.51674 14.3102 3.32269 17.2275 3.32269C20.1449 3.32269 22.9428 4.51674 25.0057 6.64215C27.0686 8.76756 28.2275 11.6502 28.2275 14.656C28.2275 23.1815 18.2423 31.8459 18.2423 31.8459C17.6868 32.3729 16.7724 32.3672 16.2128 31.8459ZM17.2275 19.6144C17.8595 19.6144 18.4853 19.4861 19.0692 19.2369C19.6531 18.9877 20.1836 18.6225 20.6305 18.1621C21.0774 17.7017 21.4319 17.1551 21.6737 16.5535C21.9156 15.9519 22.04 15.3072 22.04 14.656C22.04 14.0049 21.9156 13.3601 21.6737 12.7586C21.4319 12.157 21.0774 11.6104 20.6305 11.15C20.1836 10.6895 19.6531 10.3243 19.0692 10.0751C18.4853 9.82594 17.8595 9.69769 17.2275 9.69769C15.9512 9.69769 14.7271 10.2201 13.8246 11.15C12.9221 12.0798 12.415 13.341 12.415 14.656C12.415 15.9711 12.9221 17.2322 13.8246 18.1621C14.7271 19.092 15.9512 19.6144 17.2275 19.6144Z" fill="url(#paint0_linear_221_399)"/>
<defs>
<linearGradient id="paint0_linear_221_399" x1="17.2275" y1="3.32269" x2="17.2275" y2="32.239" gradientUnits="userSpaceOnUse">
<stop stop-color="#66BBF8"/>
<stop offset="1" stop-color="#4DB9AB"/>
</linearGradient>
</defs>
</svg>
