<svg width="66" height="66" viewBox="0 0 66 66" fill="none" xmlns="http://www.w3.org/2000/svg">
<path d="M11.5021 9.04639C8.49587 9.04639 6.08545 11.4568 6.08545 14.4631V41.5464C6.08545 42.983 6.65613 44.3607 7.67195 45.3765C8.68778 46.3924 10.0655 46.9631 11.5021 46.9631H33.1688V60.5047L41.2938 52.3797L49.4188 60.5047V46.9631H54.8355C56.272 46.9631 57.6498 46.3924 58.6656 45.3765C59.6814 44.3607 60.2521 42.983 60.2521 41.5464V14.4631C60.2521 13.0265 59.6814 11.6487 58.6656 10.6329C57.6498 9.61707 56.272 9.04639 54.8355 9.04639H11.5021ZM33.1688 14.4631L41.2938 19.8797L49.4188 14.4631V23.9422L57.5438 28.0047L49.4188 32.0672V41.5464L41.2938 36.1297L33.1688 41.5464V32.0672L25.0438 28.0047L33.1688 23.9422V14.4631ZM11.5021 14.4631H25.0438V19.8797H11.5021V14.4631ZM11.5021 25.2964H19.6271V30.7131H11.5021V25.2964ZM11.5021 36.1297H25.0438V41.5464H11.5021V36.1297Z" fill="url(#paint0_linear_320_716)"/>
<defs>
<linearGradient id="paint0_linear_320_716" x1="5.29665" y1="9.04639" x2="76.1326" y2="14.22" gradientUnits="userSpaceOnUse">
<stop stop-color="#67BBFB"/>
<stop offset="1" stop-color="#4DB9AB"/>
</linearGradient>
</defs>
</svg>
