<svg width="66" height="66" viewBox="0 0 66 66" fill="none" xmlns="http://www.w3.org/2000/svg">
<path fill-rule="evenodd" clip-rule="evenodd" d="M53.7588 17.6845C52.6813 17.6845 51.648 18.1125 50.8862 18.8744C50.1243 19.6362 49.6963 20.6695 49.6963 21.747V24.4553H57.8213V21.747C57.8213 20.6695 57.3933 19.6362 56.6314 18.8744C55.8695 18.1125 54.8362 17.6845 53.7588 17.6845ZM57.8213 27.1637H49.6963V49.5074L53.7588 55.6012L57.8213 49.5074V27.1637ZM9.07129 12.2678V52.8928C9.07129 53.9703 9.4993 55.0036 10.2612 55.7654C11.023 56.5273 12.0563 56.9553 13.1338 56.9553H42.9255C44.0029 56.9553 45.0362 56.5273 45.7981 55.7654C46.5599 55.0036 46.988 53.9703 46.988 52.8928V12.2678C46.988 11.1904 46.5599 10.1571 45.7981 9.3952C45.0362 8.63333 44.0029 8.20532 42.9255 8.20532H13.1338C12.0563 8.20532 11.023 8.63333 10.2612 9.3952C9.4993 10.1571 9.07129 11.1904 9.07129 12.2678ZM28.0296 20.3928C28.0296 20.0337 28.1723 19.6892 28.4262 19.4353C28.6802 19.1813 29.0246 19.0387 29.3838 19.0387H40.2171C40.5763 19.0387 40.9207 19.1813 41.1747 19.4353C41.4286 19.6892 41.5713 20.0337 41.5713 20.3928C41.5713 20.752 41.4286 21.0964 41.1747 21.3504C40.9207 21.6043 40.5763 21.747 40.2171 21.747H29.3838C29.0246 21.747 28.6802 21.6043 28.4262 21.3504C28.1723 21.0964 28.0296 20.752 28.0296 20.3928ZM29.3838 24.4553C29.0246 24.4553 28.6802 24.598 28.4262 24.8519C28.1723 25.1059 28.0296 25.4503 28.0296 25.8095C28.0296 26.1686 28.1723 26.5131 28.4262 26.767C28.6802 27.021 29.0246 27.1637 29.3838 27.1637H40.2171C40.5763 27.1637 40.9207 27.021 41.1747 26.767C41.4286 26.5131 41.5713 26.1686 41.5713 25.8095C41.5713 25.4503 41.4286 25.1059 41.1747 24.8519C40.9207 24.598 40.5763 24.4553 40.2171 24.4553H29.3838ZM28.0296 37.997C28.0296 37.6378 28.1723 37.2934 28.4262 37.0394C28.6802 36.7855 29.0246 36.6428 29.3838 36.6428H40.2171C40.5763 36.6428 40.9207 36.7855 41.1747 37.0394C41.4286 37.2934 41.5713 37.6378 41.5713 37.997C41.5713 38.3561 41.4286 38.7006 41.1747 38.9545C40.9207 39.2085 40.5763 39.3512 40.2171 39.3512H29.3838C29.0246 39.3512 28.6802 39.2085 28.4262 38.9545C28.1723 38.7006 28.0296 38.3561 28.0296 37.997ZM29.3838 42.0595C29.0246 42.0595 28.6802 42.2022 28.4262 42.4561C28.1723 42.7101 28.0296 43.0545 28.0296 43.4137C28.0296 43.7728 28.1723 44.1172 28.4262 44.3712C28.6802 44.6252 29.0246 44.7678 29.3838 44.7678H40.2171C40.5763 44.7678 40.9207 44.6252 41.1747 44.3712C41.4286 44.1172 41.5713 43.7728 41.5713 43.4137C41.5713 43.0545 41.4286 42.7101 41.1747 42.4561C40.9207 42.2022 40.5763 42.0595 40.2171 42.0595H29.3838ZM17.1963 37.997V42.0595H21.2588V37.997H17.1963ZM15.8421 35.2887H22.613C22.9721 35.2887 23.3165 35.4313 23.5705 35.6853C23.8245 35.9392 23.9671 36.2837 23.9671 36.6428V43.4137C23.9671 43.7728 23.8245 44.1172 23.5705 44.3712C23.3165 44.6252 22.9721 44.7678 22.613 44.7678H15.8421C15.483 44.7678 15.1385 44.6252 14.8846 44.3712C14.6306 44.1172 14.488 43.7728 14.488 43.4137V36.6428C14.488 36.2837 14.6306 35.9392 14.8846 35.6853C15.1385 35.4313 15.483 35.2887 15.8421 35.2887ZM24.9245 21.3502C25.1712 21.0948 25.3077 20.7528 25.3046 20.3977C25.3015 20.0426 25.1591 19.703 24.908 19.4519C24.6569 19.2008 24.3173 19.0584 23.9622 19.0553C23.6072 19.0523 23.2651 19.1888 23.0097 19.4354L18.5505 23.8947L16.7995 22.1438C16.5441 21.8971 16.2021 21.7606 15.847 21.7637C15.4919 21.7668 15.1523 21.9092 14.9012 22.1603C14.6501 22.4113 14.5077 22.751 14.5046 23.106C14.5016 23.4611 14.6381 23.8032 14.8847 24.0586L18.5505 27.7243L24.9245 21.3502Z" fill="url(#paint0_linear_320_720)"/>
<defs>
<linearGradient id="paint0_linear_320_720" x1="8.36137" y1="8.20532" x2="72.1467" y2="12.6311" gradientUnits="userSpaceOnUse">
<stop stop-color="#67BBFB"/>
<stop offset="1" stop-color="#4DB9AB"/>
</linearGradient>
</defs>
</svg>
