<svg width="21" height="21" viewBox="0 0 21 21" fill="none" xmlns="http://www.w3.org/2000/svg">
<path d="M16.3034 14.1198C15.1644 14.3933 13.9753 14.38 12.8427 14.0812C11.71 13.7824 10.6691 13.2073 9.81328 12.4075C8.95742 11.6077 8.31326 10.6082 7.93851 9.49831C7.56375 8.38847 7.47009 7.20302 7.66591 6.0481C7.63658 6.07734 7.6051 6.10436 7.57175 6.12893C7.33841 6.30643 7.04675 6.37226 6.46341 6.50393L5.93425 6.62393C3.88425 7.0881 2.85925 7.31976 2.61508 8.10393C2.37175 8.88726 3.07008 9.70476 4.46758 11.3389L4.82925 11.7614C5.22591 12.2256 5.42508 12.4581 5.51425 12.7448C5.60341 13.0323 5.57341 13.3423 5.51341 13.9614L5.45841 14.5256C5.24758 16.7064 5.14175 17.7964 5.78008 18.2806C6.41841 18.7648 7.37841 18.3239 9.29674 17.4398L9.79424 17.2114C10.3392 16.9598 10.6117 16.8348 10.9009 16.8348C11.1901 16.8348 11.4626 16.9598 12.0084 17.2114L12.5042 17.4398C14.4234 18.3231 15.3834 18.7648 16.0209 18.2814C16.6601 17.7964 16.5542 16.7064 16.3434 14.5256L16.3034 14.1198Z" fill="url(#paint0_linear_320_693)"/>
<path opacity="0.5" d="M8.52862 4.65393L8.25528 5.14393C7.95528 5.68227 7.80528 5.95143 7.57195 6.12893C7.60528 6.10393 7.63667 6.07699 7.66612 6.0481C7.47025 7.20311 7.5639 8.38866 7.9387 9.49859C8.31349 10.6085 8.95773 11.6081 9.8137 12.408C10.6697 13.2078 11.7107 13.7828 12.8434 14.0816C13.9762 14.3803 15.1654 14.3934 16.3045 14.1198L16.2878 13.9614C16.2286 13.3423 16.1986 13.0323 16.2878 12.7448C16.377 12.4581 16.5753 12.2256 16.9728 11.7614L17.3345 11.3389C18.732 9.7056 19.4303 8.8881 19.1861 8.10393C18.9428 7.31977 17.9178 7.08727 15.8678 6.62393L15.3378 6.50393C14.7553 6.37227 14.4636 6.30643 14.2295 6.12893C13.9961 5.95143 13.8461 5.68227 13.5461 5.14393L13.2736 4.65393C12.2178 2.7606 11.6903 1.81393 10.9011 1.81393C10.112 1.81393 9.58445 2.7606 8.52862 4.65393Z" fill="url(#paint1_linear_320_693)"/>
<defs>
<linearGradient id="paint0_linear_320_693" x1="2.3644" y1="6.0481" x2="20.5798" y2="7.46513" gradientUnits="userSpaceOnUse">
<stop stop-color="#67BBFB"/>
<stop offset="1" stop-color="#4DB9AB"/>
</linearGradient>
<linearGradient id="paint1_linear_320_693" x1="7.3965" y1="1.81393" x2="22.6721" y2="2.80312" gradientUnits="userSpaceOnUse">
<stop stop-color="#67BBFB"/>
<stop offset="1" stop-color="#4DB9AB"/>
</linearGradient>
</defs>
</svg>
