<svg width="24" height="25" viewBox="0 0 24 25" fill="none" xmlns="http://www.w3.org/2000/svg">
<path fill-rule="evenodd" clip-rule="evenodd" d="M16.5491 22.4342C15.1091 22.3812 11.0281 21.8172 6.75407 17.5442C2.48107 13.2702 1.91807 9.19024 1.86407 7.74924C1.78407 5.55324 3.46607 3.42024 5.40907 2.58724C5.64305 2.48621 5.89927 2.44774 6.1526 2.47562C6.40593 2.50349 6.64766 2.59675 6.85407 2.74624C8.45407 3.91224 9.55807 5.67624 10.5061 7.06324C10.7147 7.36797 10.8038 7.73879 10.7566 8.10504C10.7094 8.47129 10.5291 8.80737 10.2501 9.04924L8.29907 10.4982C8.20481 10.5663 8.13846 10.6663 8.11235 10.7796C8.08623 10.8929 8.10212 11.0118 8.15707 11.1142C8.59907 11.9172 9.38507 13.1132 10.2851 14.0132C11.1851 14.9132 12.4381 15.7512 13.2971 16.2432C13.4048 16.3037 13.5315 16.3206 13.6513 16.2905C13.7711 16.2603 13.8748 16.1855 13.9411 16.0812L15.2111 14.1482C15.4446 13.8381 15.789 13.6303 16.1722 13.5684C16.5555 13.5065 16.9478 13.5953 17.2671 13.8162C18.6741 14.7902 20.3161 15.8752 21.5181 17.4142C21.6797 17.6221 21.7825 17.8696 21.8158 18.1309C21.849 18.3921 21.8115 18.6575 21.7071 18.8992C20.8701 20.8522 18.7521 22.5152 16.5491 22.4342Z" fill="#45A3EB"/>
</svg>
