<svg width="24" height="25" viewBox="0 0 24 25" fill="none" xmlns="http://www.w3.org/2000/svg">
<path d="M11.9971 1.74561C5.92507 1.74561 0.99707 6.67361 0.99707 12.7456C0.99707 18.8176 5.92507 23.7456 11.9971 23.7456C18.0691 23.7456 22.9971 18.8176 22.9971 12.7456C22.9971 6.67361 18.0691 1.74561 11.9971 1.74561ZM17.1011 9.22561C16.9361 10.9636 16.2211 15.1876 15.8581 17.1346C15.7041 17.9596 15.3961 18.2346 15.1101 18.2676C14.4721 18.3226 13.9881 17.8496 13.3721 17.4426C12.4041 16.8046 11.8541 16.4086 10.9191 15.7926C9.83007 15.0776 10.5341 14.6816 11.1611 14.0436C11.3261 13.8786 14.1421 11.3156 14.1971 11.0846C14.2047 11.0496 14.2037 11.0133 14.1941 10.9788C14.1845 10.9443 14.1667 10.9126 14.1421 10.8866C14.0761 10.8316 13.9881 10.8536 13.9111 10.8646C13.8121 10.8866 12.2721 11.9096 9.26907 13.9336C8.82907 14.2306 8.43307 14.3846 8.08107 14.3736C7.68507 14.3626 6.93707 14.1536 6.37607 13.9666C5.68307 13.7466 5.14407 13.6256 5.18807 13.2406C5.21007 13.0426 5.48507 12.8446 6.00207 12.6356C9.21407 11.2386 11.3481 10.3146 12.4151 9.87461C15.4731 8.59861 16.1001 8.37861 16.5181 8.37861C16.6061 8.37861 16.8151 8.40061 16.9471 8.51061C17.0571 8.59861 17.0901 8.71961 17.1011 8.80761C17.0901 8.87361 17.1121 9.07161 17.1011 9.22561Z" fill="#45A3EB"/>
</svg>
